<?xml version="1.0" standalone="no"?>
<!DOCTYPE svg PUBLIC "-//W3C//DTD SVG 20010904//EN"
 "http://www.w3.org/TR/2001/REC-SVG-20010904/DTD/svg10.dtd">
<svg version="1.0" xmlns="http://www.w3.org/2000/svg"
 width="360.000000pt" height="367.000000pt" viewBox="0 0 360.000000 367.000000"
 preserveAspectRatio="xMidYMid meet">

<g transform="translate(0.000000,367.000000) scale(0.100000,-0.100000)"
fill="#000000" stroke="none">
<path d="M2159 3570 c-51 -15 -70 -32 -99 -90 -36 -72 -37 -100 -6 -190 14
-38 26 -80 28 -94 5 -37 -40 -100 -100 -139 -30 -21 -47 -37 -40 -41 7 -2 4
-4 -7 -4 -36 2 -56 -2 -52 -9 3 -5 -5 -9 -16 -9 -63 -4 -147 -28 -148 -43 0
-11 -2 -12 -6 -3 -2 6 -18 12 -34 12 -17 0 -28 -3 -26 -7 3 -5 -43 -9 -102
-11 l-106 -4 -28 64 c-31 73 -66 115 -103 124 -30 8 -131 -11 -151 -28 -9 -7
-13 -22 -9 -37 6 -31 -15 -191 -25 -191 -4 0 -10 -28 -14 -62 -5 -42 -14 -70
-27 -85 -16 -17 -19 -29 -13 -55 11 -52 7 -106 -10 -132 -12 -18 -13 -30 -5
-50 8 -21 6 -33 -10 -59 -11 -17 -20 -44 -20 -59 0 -16 -5 -28 -10 -28 -19 0
-33 -46 -22 -67 14 -25 -11 -101 -39 -121 -13 -9 -19 -25 -19 -55 -1 -53 -32
-144 -55 -161 -14 -10 -18 -25 -17 -59 2 -37 -3 -51 -23 -71 -21 -22 -24 -31
-19 -64 5 -33 0 -50 -32 -108 -59 -108 -108 -186 -229 -365 -62 -91 -118 -183
-125 -204 -16 -47 -8 -133 17 -177 23 -42 54 -78 67 -78 5 0 20 -10 33 -22 54
-50 224 -10 454 108 136 70 216 121 404 254 94 66 168 133 343 308 213 215
222 225 203 239 -12 8 -27 11 -33 7 -7 -5 -47 -7 -88 -6 -44 2 -81 -2 -90 -9
-13 -9 -12 -10 3 -5 25 8 21 -3 -5 -13 -25 -9 -27 -9 88 -27 l36 -5 -21 -23
c-20 -21 -29 -23 -87 -18 -54 4 -64 2 -64 -11 0 -9 -4 -19 -10 -22 -6 -4 -7 1
-4 12 6 15 4 15 -9 -2 -19 -25 -13 -35 21 -36 15 0 35 -4 45 -8 18 -6 18 -7 0
-23 -15 -14 -29 -15 -82 -9 -64 8 -65 7 -100 -25 l-36 -32 40 -7 c61 -10 75
-15 75 -27 0 -7 -23 -8 -71 -4 l-72 7 -39 -38 -39 -38 48 -12 48 -13 -53 6
-53 5 -89 -84 c-95 -91 -150 -134 -150 -119 0 6 7 12 15 16 8 3 15 13 15 23 0
14 -2 15 -9 4 -5 -7 -13 -11 -19 -7 -6 3 -13 2 -16 -3 -9 -13 -183 -143 -248
-185 -61 -39 -107 -60 -122 -57 -4 1 -14 -3 -21 -9 -6 -5 -24 -11 -39 -12 -14
-1 -26 -5 -26 -8 0 -3 -12 -7 -27 -8 -14 -1 -25 0 -22 2 2 2 67 51 145 109
288 216 538 463 854 842 78 94 176 217 218 273 230 310 463 601 581 725 85 89
153 143 285 223 50 31 93 58 95 60 8 7 -101 142 -166 207 -109 108 -219 177
-368 232 -80 30 -105 34 -136 25z m-82 -122 c-3 -7 -5 -2 -5 12 0 14 2 19 5
13 2 -7 2 -19 0 -25z m47 -108 c3 -14 -5 -1 -19 29 -14 29 -25 56 -25 60 1 11
37 -63 44 -89z m76 -257 c0 -5 -18 -42 -41 -83 -22 -41 -50 -97 -63 -125 -137
-292 -382 -757 -437 -831 -68 -92 -147 -123 -216 -85 -74 42 -101 109 -110
269 -7 127 3 143 38 62 25 -58 69 -100 105 -100 41 0 99 36 149 92 25 29 135
186 243 348 267 400 333 490 332 453z m-720 -161 c0 -5 -10 -8 -22 -7 -27 2
-104 -22 -136 -43 -12 -8 -25 -13 -27 -10 -8 8 38 45 70 56 36 13 115 15 115
4z m53 1 c-7 -2 -21 -2 -30 0 -10 3 -4 5 12 5 17 0 24 -2 18 -5z m-142 -154
c38 -12 38 -12 23 -40 -11 -22 -22 -29 -44 -29 -43 0 -46 18 -5 26 l37 7 -41
18 c-65 29 -46 40 30 18z m377 -34 c1 -1 0 -9 -4 -18 -4 -11 -15 -14 -37 -12
-76 10 -211 13 -197 6 8 -5 54 -16 103 -26 81 -17 100 -26 79 -39 -9 -5 -209
37 -218 46 -2 3 0 16 6 29 11 24 12 24 138 20 70 -1 128 -4 130 -6z m-538 -49
c0 -3 -4 -8 -10 -11 -5 -3 -10 -1 -10 4 0 6 5 11 10 11 6 0 10 -2 10 -4z m166
-37 c6 -5 14 -6 18 -2 4 4 4 -1 1 -12 -7 -20 -6 -20 9 -1 14 17 16 18 16 3 0
-19 20 -24 21 -4 0 7 2 8 5 1 2 -6 20 -9 39 -8 19 2 35 -1 35 -6 0 -6 -6 -10
-12 -10 -9 0 -8 -4 2 -10 16 -12 -21 -6 -74 11 -15 5 -32 6 -36 4 -5 -3 -11
-1 -15 5 -4 6 -11 8 -16 5 -5 -4 -9 -1 -9 5 0 6 -4 8 -10 5 -5 -3 -10 -1 -10
4 0 8 -7 7 -20 -1 -22 -14 -35 -6 -27 16 5 12 15 14 39 9 18 -3 38 -10 44 -14z
m220 -43 c1 -1 -2 -10 -7 -21 l-8 -20 0 20 c-1 17 -3 17 -11 5 -6 -9 -10 -11
-10 -3 0 7 -7 10 -15 7 -11 -5 -13 -2 -9 10 4 11 13 14 33 10 14 -4 27 -7 27
-8z m-292 -25 c12 -13 15 -27 10 -46 -6 -23 -10 -26 -33 -20 -14 3 -33 13 -41
22 -14 14 -11 15 24 10 l39 -6 -28 29 c-26 28 -27 30 -8 30 11 0 28 -8 37 -19z
m181 -61 c92 -19 94 -20 89 -34 -4 -9 -15 -11 -42 -6 -20 4 -55 10 -77 14 -40
6 -40 6 14 -19 65 -31 68 -32 54 -46 -7 -7 -31 -1 -77 20 -36 17 -66 33 -66
35 0 3 5 17 10 31 7 19 15 25 28 21 9 -3 40 -10 67 -16z m-217 -115 c3 -2 0
-11 -7 -18 -16 -21 -85 -7 -89 17 -4 17 1 18 44 12 26 -3 50 -8 52 -11z m-100
-183 c24 -16 2 -42 -34 -42 -19 0 -34 4 -34 9 0 5 -3 16 -6 25 -5 13 1 16 27
16 19 0 40 -4 47 -8z m-78 -196 c0 -19 -26 -38 -46 -34 -9 2 -20 13 -25 26 -8
20 -6 22 31 22 27 0 40 -4 40 -14z m22 -378 c-7 -7 -12 -8 -12 -2 0 14 12 26
19 19 2 -3 -1 -11 -7 -17z m-2 -78 c0 -5 -5 -10 -11 -10 -5 0 -7 5 -4 10 3 6
8 10 11 10 2 0 4 -4 4 -10z m31 -433 c-6 -8 -7 -18 -3 -22 4 -5 1 -5 -6 -1
-10 6 -10 11 -1 22 6 8 14 14 16 14 3 0 0 -6 -6 -13z"/>
<path d="M1723 2723 c9 -2 23 -2 30 0 6 3 -1 5 -18 5 -16 0 -22 -2 -12 -5z"/>
<path d="M2966 3065 c-4 -12 -24 -15 -94 -14 -91 1 -133 -11 -161 -45 -10 -12
-5 -16 36 -21 75 -10 75 -16 1 -9 -70 6 -102 -1 -77 -17 8 -5 51 -9 97 -9 60
0 81 -3 76 -11 -5 -8 -38 -10 -108 -7 -104 6 -126 3 -126 -13 0 -6 41 -9 105
-7 58 2 105 0 105 -4 0 -5 -3 -8 -7 -8 -5 0 -23 -19 -42 -41 l-34 -41 61 3
c33 2 64 0 69 -5 5 -5 3 -6 -4 -2 -7 4 -13 2 -13 -3 0 -6 6 -11 13 -12 6 0 1
-5 -12 -10 -18 -7 -21 -12 -12 -23 9 -11 9 -16 0 -22 -8 -5 -10 -3 -5 7 4 8
-2 3 -13 -11 -11 -14 -21 -29 -21 -34 0 -6 7 -1 16 10 8 10 13 13 9 7 -12 -24
-14 -53 -4 -53 6 0 7 -4 4 -10 -4 -6 -11 -5 -19 3 -10 9 -11 14 -2 20 7 6 6 7
-4 4 -8 -2 -15 -9 -15 -14 0 -6 -3 -15 -7 -18 -4 -4 -3 -15 2 -25 5 -10 6 -21
2 -25 -4 -5 -2 -5 5 -1 7 4 9 14 6 24 -5 15 -3 14 18 -3 13 -11 18 -13 11 -4
-15 20 -4 33 16 16 13 -10 14 -9 7 3 -5 8 -10 25 -11 38 -1 20 1 21 16 7 9 -8
20 -12 25 -8 4 5 5 0 2 -9 -4 -12 -2 -15 8 -11 8 3 12 10 8 16 -3 5 -1 7 5 3
13 -8 75 29 114 68 39 40 47 25 13 -26 -21 -32 -23 -38 -8 -25 29 26 80 125
92 180 12 49 -1 97 -24 97 -7 0 -32 25 -56 55 -47 59 -54 63 -63 40z m-103
-102 c-7 -2 -19 -2 -25 0 -7 3 -2 5 12 5 14 0 19 -2 13 -5z m-59 -311 c3 -5
-1 -9 -9 -9 -8 0 -12 4 -9 9 3 4 7 8 9 8 2 0 6 -4 9 -8z"/>
<path d="M2560 2880 c-10 -7 19 -10 90 -10 58 0 112 5 120 10 10 7 -19 10 -90
10 -58 0 -112 -5 -120 -10z"/>
<path d="M2505 2830 c-7 -12 82 -12 165 0 48 6 42 7 -52 9 -62 0 -109 -3 -113
-9z"/>
<path d="M2757 2622 c2 -10 -3 -24 -11 -31 -19 -16 -21 -1 -3 19 10 12 9 12
-3 3 -8 -6 -23 -25 -33 -42 -13 -23 -15 -31 -5 -37 7 -4 10 -4 6 1 -9 9 11 50
19 41 9 -8 43 24 43 40 0 7 -4 15 -9 18 -5 4 -7 -2 -4 -12z"/>
<path d="M2880 2560 c-8 -5 -12 -12 -9 -15 4 -3 12 1 19 10 14 17 11 19 -10 5z"/>
<path d="M2522 2368 c-44 -42 -60 -64 -53 -71 7 -7 26 5 61 40 27 28 50 56 50
62 0 7 4 9 10 6 6 -3 7 1 4 9 -3 9 -7 16 -8 16 0 0 -29 -28 -64 -62z"/>
<path d="M2318 2238 c-68 -36 -112 -65 -105 -69 7 -4 38 -13 70 -20 l58 -12
66 66 c57 56 65 68 54 81 -8 9 -16 16 -20 16 -3 0 -59 -28 -123 -62z"/>
<path d="M2479 2163 c-13 -16 -12 -17 4 -4 9 7 17 15 17 17 0 8 -8 3 -21 -13z"/>
<path d="M2419 2110 c-13 -10 -19 -19 -13 -20 6 0 19 9 29 20 23 26 14 26 -16
0z"/>
<path d="M1910 2105 c-11 -13 -8 -15 16 -15 16 0 53 -3 82 -6 33 -4 52 -3 52
3 0 6 -25 14 -57 18 -31 4 -61 9 -68 11 -6 3 -18 -2 -25 -11z"/>
<path d="M2090 2082 c8 -5 56 -14 106 -21 109 -13 114 -13 114 -2 0 4 -33 11
-72 15 -40 4 -93 9 -118 12 -30 3 -40 2 -30 -4z"/>
<path d="M1866 2053 c-4 -4 21 -13 54 -20 64 -13 110 -5 110 19 0 9 -2 10 -8
2 -5 -8 -22 -9 -57 -3 -64 10 -90 11 -99 2z"/>
<path d="M2340 2039 c0 -5 5 -7 10 -4 6 3 10 8 10 11 0 2 -4 4 -10 4 -5 0 -10
-5 -10 -11z"/>
<path d="M1826 2001 c-5 -7 3 -11 23 -11 16 0 41 -4 54 -9 26 -10 89 0 71 12
-22 13 -141 20 -148 8z"/>
<path d="M2006 1981 c34 -15 204 -26 204 -12 0 6 -15 11 -33 11 -19 0 -70 2
-113 5 -54 4 -72 2 -58 -4z"/>
<path d="M1795 1959 c-4 -6 -5 -12 -3 -14 9 -9 151 -9 154 0 2 6 -11 10 -28
10 -18 0 -52 4 -75 8 -27 4 -44 3 -48 -4z"/>
<path d="M2203 1923 c0 -23 0 -23 18 -7 11 9 19 18 19 19 0 2 -8 5 -19 8 -14
3 -18 -1 -18 -20z"/>
<path d="M1760 1911 c0 -10 93 -26 128 -22 13 1 21 -2 18 -8 -4 -5 26 -12 71
-16 43 -4 85 -9 94 -11 15 -4 47 22 37 31 -2 2 -48 5 -102 6 -83 1 -96 4 -91
17 4 11 2 12 -8 4 -8 -7 -26 -8 -52 -2 -51 12 -95 12 -95 1z"/>
<path d="M1730 1873 c0 -6 17 -13 38 -16 20 -3 46 -9 57 -12 11 -3 28 0 38 7
18 13 18 14 0 15 -10 0 -44 4 -75 8 -37 5 -58 4 -58 -2z"/>
<path d="M1700 1833 c0 -6 17 -13 38 -16 20 -3 46 -9 57 -12 11 -3 28 0 38 7
16 12 16 13 -5 14 -13 1 -47 5 -75 9 -34 5 -53 4 -53 -2z"/>
<path d="M2068 1808 c9 -9 5 -19 -20 -45 -18 -18 -30 -33 -27 -33 3 0 24 19
47 43 l42 43 -27 2 c-21 2 -24 -1 -15 -10z"/>
<path d="M1705 1786 c47 -17 120 -21 94 -6 -9 5 -43 12 -75 15 l-59 5 40 -14z"/>
<path d="M1833 1794 c-7 -3 -13 -10 -13 -15 0 -6 4 -8 9 -4 5 3 12 1 15 -4 4
-5 35 -13 70 -16 56 -6 67 -5 86 13 l21 19 -24 5 c-35 7 -150 8 -164 2z"/>
<path d="M1655 1763 c6 -5 32 -15 59 -21 40 -10 52 -10 62 0 11 11 9 13 -9 14
-12 0 -44 4 -72 8 -31 5 -46 5 -40 -1z"/>
<path d="M1620 1733 c0 -12 112 -35 123 -24 4 4 -11 11 -35 15 -24 4 -53 9
-65 13 -13 3 -23 1 -23 -4z"/>
<path d="M1601 1706 c13 -13 107 -34 119 -26 7 4 -3 10 -27 14 -21 4 -51 9
-68 13 -16 3 -27 2 -24 -1z"/>
<path d="M1615 1665 c45 -15 106 -20 70 -6 -11 5 -40 11 -65 14 l-45 5 40 -13z"/>
<path d="M1605 1635 c58 -17 75 -18 75 -7 0 5 -6 9 -12 9 -7 0 -35 3 -63 6
l-50 6 50 -14z"/>
<path d="M1575 1610 c11 -5 34 -8 50 -8 29 0 29 0 5 8 -14 4 -36 8 -50 8 -23
1 -23 0 -5 -8z"/>
<path d="M1551 1586 c2 -2 20 -6 39 -10 25 -4 31 -3 20 4 -14 9 -69 15 -59 6z"/>
<path d="M1548 1553 c6 -2 18 -2 25 0 6 3 1 5 -13 5 -14 0 -19 -2 -12 -5z"/>
</g>
</svg>
