<?xml version="1.0" standalone="no"?>
<!DOCTYPE svg PUBLIC "-//W3C//DTD SVG 20010904//EN"
 "http://www.w3.org/TR/2001/REC-SVG-20010904/DTD/svg10.dtd">
<svg version="1.0" xmlns="http://www.w3.org/2000/svg"
 width="360.000000pt" height="360.000000pt" viewBox="0 0 360.000000 360.000000"
 preserveAspectRatio="xMidYMid meet">

<g transform="translate(0.000000,360.000000) scale(0.100000,-0.100000)"
fill="#000000" stroke="none">
<path d="M1675 2585 c-27 -15 -57 -33 -65 -41 -12 -12 -10 -14 21 -14 19 0 44
-7 55 -15 18 -15 18 -16 -6 -13 -14 2 -24 -2 -23 -8 1 -6 -12 -11 -29 -11
l-30 0 23 19 c20 16 21 17 4 12 -41 -14 -48 -27 -23 -40 23 -13 23 -13 1 -14
-12 0 -29 3 -38 6 -13 5 -14 8 -3 15 9 6 9 9 1 9 -6 0 -15 -4 -18 -10 -3 -5
-18 -10 -33 -10 -15 -1 -42 -14 -62 -30 -19 -17 -42 -30 -51 -30 -10 0 -30
-10 -46 -23 -15 -13 -48 -35 -73 -49 -25 -14 -54 -36 -65 -48 -26 -29 -114
-86 -190 -123 -33 -16 -90 -55 -126 -87 -42 -38 -80 -62 -108 -70 -41 -11 -74
-36 -96 -73 -5 -10 -97 -54 -203 -97 -107 -44 -221 -94 -254 -112 -68 -36
-124 -96 -138 -147 -16 -63 -24 -188 -11 -195 6 -4 11 0 12 11 0 11 3 13 6 5
2 -6 8 -10 13 -7 4 3 10 -4 13 -16 5 -17 3 -18 -10 -7 -15 12 -15 11 -4 -9 6
-13 9 -23 5 -23 -4 0 1 -9 12 -21 24 -26 78 -54 124 -64 19 -4 73 -18 119 -31
64 -19 109 -24 195 -25 61 0 120 -4 131 -9 14 -6 -4 -9 -55 -9 -41 -1 -149
-10 -240 -21 -91 -11 -183 -22 -205 -24 -22 -2 -55 -11 -74 -19 -29 -12 -31
-15 -15 -22 33 -14 461 -18 704 -6 129 7 323 19 430 28 216 19 302 20 340 4
21 -8 16 -10 -36 -10 -178 -2 -587 -53 -628 -78 -44 -28 274 -47 634 -38 496
11 898 38 1120 75 119 20 283 38 600 65 161 14 266 29 250 35 -3 1 -21 3 -40
5 -19 2 -59 6 -89 9 -30 3 -56 8 -58 10 -2 2 18 9 44 16 26 6 64 20 83 31 19
11 26 17 15 13 -45 -16 -113 -32 -155 -37 -125 -16 -165 -19 -266 -21 -68 -2
-114 1 -123 8 -12 9 -13 8 -6 -3 6 -11 4 -13 -7 -8 -9 3 -21 0 -28 -6 -10 -9
-11 -9 -5 3 8 13 7 13 -8 1 -14 -11 -17 -11 -17 0 0 12 -2 12 -9 0 -6 -9 -24
-14 -45 -13 -19 1 -38 -3 -41 -8 -3 -5 -12 -7 -19 -4 -8 3 -17 1 -20 -4 -3 -5
-17 -7 -31 -4 -18 3 -25 0 -25 -11 0 -11 -19 -18 -67 -27 -79 -13 -363 -28
-369 -19 -2 3 29 7 69 8 40 1 106 7 147 13 41 5 85 10 98 9 12 0 22 3 22 8 0
5 25 15 55 21 30 6 57 16 61 21 3 5 9 7 14 4 5 -3 18 4 28 16 11 11 38 23 61
26 22 3 38 9 36 13 -7 11 31 17 350 50 314 32 426 53 403 75 -3 3 -17 1 -31
-6 -18 -8 -33 -8 -54 -1 l-28 10 26 1 c46 2 89 22 89 42 0 10 -5 19 -10 19 -6
0 -9 -5 -8 -11 2 -6 -4 -14 -12 -16 -13 -4 -13 -3 0 6 12 8 12 11 1 11 -8 0
-4 8 10 21 21 18 21 20 4 14 -55 -19 -86 -25 -203 -40 -92 -11 -151 -14 -212
-8 l-85 9 103 7 c143 10 319 36 359 52 23 10 33 10 33 3 0 -6 2 -9 5 -6 12 12
-7 37 -23 30 -15 -5 -15 -3 -4 10 10 13 10 18 1 24 -7 4 -9 3 -5 -4 3 -6 2
-13 -4 -17 -6 -4 -8 -10 -5 -15 3 -5 -3 -11 -12 -14 -36 -11 -220 -35 -308
-40 l-90 -5 100 14 c55 8 112 15 128 15 15 0 27 5 27 12 0 6 -3 8 -7 5 -3 -4
-15 1 -26 10 -11 10 -17 13 -14 7 11 -19 -22 -25 -33 -6 -10 15 -11 14 -7 -6
6 -27 -8 -20 -16 8 -3 11 -1 18 4 14 13 -8 11 10 -3 25 -7 8 -8 12 -3 9 6 -3
19 -2 30 3 18 7 18 8 -5 9 -14 1 -34 6 -45 11 -16 7 -13 8 15 5 31 -3 208 18
215 26 2 2 5 25 7 52 5 50 -7 127 -40 261 -11 44 -27 136 -36 205 -22 185 -34
221 -82 245 -30 16 -59 20 -129 20 -82 0 -97 -3 -159 -34 l-68 -33 -39 38
c-21 21 -39 47 -39 59 -1 84 -106 176 -210 183 -58 4 -130 -12 -130 -29 0 -5
-6 -9 -14 -9 -15 0 -66 -37 -66 -48 0 -4 18 -6 41 -4 44 5 129 -15 129 -29 0
-5 -12 -6 -26 -3 -20 5 -25 4 -19 -5 5 -9 1 -12 -11 -11 -11 1 -26 2 -34 1
-13 -1 -13 -2 0 -11 12 -8 9 -10 -12 -10 -36 0 -59 10 -51 23 4 6 1 7 -7 2 -7
-4 -31 -10 -54 -12 -23 -3 -50 -13 -61 -24 -12 -10 -36 -22 -55 -25 -46 -9
-90 -31 -91 -47 -1 -6 -2 -18 -3 -26 0 -8 -27 -30 -59 -49 l-58 -34 -77 74
c-74 70 -77 75 -87 134 -6 33 -18 72 -27 86 -22 33 -77 58 -141 65 -43 4 -60
0 -102 -22z m-122 -142 c-7 -2 -19 -2 -25 0 -7 3 -2 5 12 5 14 0 19 -2 13 -5z
m48 -14 c19 -10 18 -29 -2 -29 -6 0 -7 5 -3 12 5 7 0 9 -14 6 -15 -4 -19 -2
-15 8 6 17 9 17 34 3z m806 -5 c-3 -3 -12 -4 -19 -1 -8 3 -5 6 6 6 11 1 17 -2
13 -5z m150 -16 c11 -12 8 -14 -22 -15 -19 -1 -33 4 -32 10 1 5 -9 14 -23 18
-19 7 -14 8 19 5 24 -3 50 -11 58 -18z m73 -18 c0 -5 -5 -10 -11 -10 -5 0 -7
5 -4 10 3 6 8 10 11 10 2 0 4 -4 4 -10z m-820 -80 c6 -11 8 -20 6 -20 -3 0
-10 9 -16 20 -6 11 -8 20 -6 20 3 0 10 -9 16 -20z m974 -14 c20 -19 36 -40 36
-47 0 -6 -9 0 -20 14 -12 15 -32 35 -47 47 -14 11 -21 20 -16 20 6 0 27 -15
47 -34z m0 -55 c17 -17 12 -16 -29 4 -61 31 -66 37 -24 25 18 -6 42 -19 53
-29z m-1105 -40 c0 -14 -1 -14 -6 -1 -3 8 -10 24 -15 35 -9 20 -9 20 6 1 9
-11 16 -27 15 -35z m-48 -8 c13 -16 12 -17 -3 -4 -10 7 -18 15 -18 17 0 8 8 3
21 -13z m-102 -43 c0 -10 -3 -8 -9 5 -12 27 -12 43 0 25 5 -8 9 -22 9 -30z
m1121 -16 c0 -3 -13 4 -30 16 -16 12 -30 24 -30 26 0 3 14 -4 30 -16 17 -12
30 -24 30 -26z m-1155 -4 c10 -11 16 -20 13 -20 -3 0 -13 9 -23 20 -10 11 -16
20 -13 20 3 0 13 -9 23 -20z m1013 -5 c-3 -3 -9 2 -12 12 -6 14 -5 15 5 6 7
-7 10 -15 7 -18z m-2 -57 c4 -7 -9 1 -29 16 -20 16 -37 30 -37 33 0 7 58 -36
66 -49z m-1112 -8 c5 -17 4 -20 -2 -10 -5 8 -13 26 -16 40 -5 17 -4 20 2 10 5
-8 13 -26 16 -40z m1129 30 c3 -11 1 -18 -4 -14 -5 3 -9 12 -9 20 0 20 7 17
13 -6z m-1167 -32 l29 -33 -32 29 c-31 28 -38 36 -30 36 2 0 16 -15 33 -32z
m1024 -35 c0 -22 -8 -14 -19 20 -10 29 -9 30 4 13 8 -11 15 -26 15 -33z m345
39 c-3 -3 0 -11 6 -19 17 -20 5 -16 -14 5 -15 16 -15 19 -2 19 8 0 13 -3 10
-5z m-367 -62 c17 -27 10 -25 -19 6 -13 14 -17 23 -9 19 9 -3 21 -14 28 -25z
m-1105 -20 c-7 -8 -22 24 -16 34 4 5 10 1 13 -10 4 -10 6 -21 3 -24z m338 23
c13 -16 12 -17 -3 -4 -10 7 -18 15 -18 17 0 8 8 3 21 -13z m987 -15 c-2 -7 2
-12 8 -11 6 1 11 -5 11 -13 0 -12 -4 -11 -18 2 -10 9 -16 21 -13 25 8 13 14
11 12 -3z m-335 -73 l6 -30 -13 30 c-8 17 -16 41 -20 55 l-7 25 14 -25 c8 -14
17 -38 20 -55z m-1010 45 c3 -11 4 -20 3 -20 -2 0 -11 9 -21 20 -15 17 -16 20
-3 20 9 0 18 -9 21 -20z m2007 -28 c0 -9 -74 -81 -105 -102 -11 -7 0 6 25 29
29 27 38 40 25 37 -16 -5 -14 -1 8 19 28 25 47 32 47 17z m-1423 -8 c-3 -3
-12 -4 -19 -1 -8 3 -5 6 6 6 11 1 17 -2 13 -5z m-50 -10 c-3 -3 -12 -4 -19 -1
-8 3 -5 6 6 6 11 1 17 -2 13 -5z m678 -16 c4 -3 2 -9 -3 -12 -5 -3 -15 1 -21
8 -10 11 -9 14 3 12 9 -1 18 -5 21 -8z m-2178 -337 c92 -67 165 -83 548 -121
60 -6 112 -14 115 -17 3 -3 -29 -2 -70 1 -41 4 -100 9 -130 12 -132 12 -290
37 -346 55 -51 16 -204 109 -180 109 4 0 32 -18 63 -39z m886 -18 c12 -16 45
-50 72 -77 l50 -49 -48 38 c-26 21 -53 47 -58 57 -6 11 -25 28 -42 38 -22 14
-26 20 -14 20 9 0 27 -12 40 -27z m1587 -88 c0 -3 -38 -23 -84 -45 -116 -55
-247 -80 -536 -104 -61 -5 -383 11 -495 24 -119 14 -283 48 -317 66 -40 21
-35 26 7 8 54 -22 213 -53 333 -63 459 -41 813 -12 1012 83 80 39 80 39 80 31z
m797 -41 c-3 -3 -12 -4 -19 -1 -8 3 -5 6 6 6 11 1 17 -2 13 -5z m-67 -12 l-35
-5 30 -8 c20 -5 8 -7 -35 -4 -48 3 -59 2 -40 -5 19 -8 14 -9 -24 -5 -27 3 -58
6 -70 6 -28 2 140 26 179 26 27 0 26 -1 -5 -5z m-323 -9 c-20 -2 -52 -2 -70 0
-17 2 0 4 38 4 39 0 53 -2 32 -4z m390 1 c-3 -3 -12 -4 -19 -1 -8 3 -5 6 6 6
11 1 17 -2 13 -5z m-2491 -31 c7 -7 18 -12 25 -11 8 2 14 -4 14 -12 0 -8 14
-23 30 -32 l30 -18 -44 7 c-35 5 -42 3 -36 -7 5 -7 -6 -5 -25 6 -36 21 -56 54
-47 78 7 18 35 12 53 -11z m1982 20 c-10 -2 -26 -2 -35 0 -10 3 -2 5 17 5 19
0 27 -2 18 -5z m272 -12 c42 -6 38 -7 -46 -14 -50 -4 -118 -4 -150 0 l-59 8
60 6 c88 8 144 8 195 0z m-191 -27 c8 -8 -84 -2 -109 6 -16 6 -1 7 40 3 36 -3
67 -7 69 -9z m376 6 c18 -8 18 -9 -5 -8 -14 0 -36 4 -50 8 -24 8 -24 8 5 8 17
0 39 -3 50 -8z m-65 -10 c14 -4 19 -8 12 -9 -7 -1 -86 -8 -175 -17 -119 -11
-175 -13 -212 -5 -46 9 -43 9 35 6 61 -3 76 -2 55 5 -22 6 -6 8 55 5 61 -3 76
-1 55 5 -22 7 -8 8 50 5 52 -3 71 -1 55 4 -23 8 -22 9 10 9 19 0 46 -4 60 -8z
m-2110 -38 c205 -93 496 -169 735 -193 l80 -8 -95 4 c-52 2 -152 15 -222 29
-140 27 -348 83 -363 97 -5 5 -15 9 -23 9 -17 0 -172 77 -187 92 -7 7 -4 7 10
0 11 -5 40 -19 65 -30z m1678 31 c-10 -2 -28 -2 -40 0 -13 2 -5 4 17 4 22 1
32 -1 23 -4z m-30 -30 c-10 -2 -28 -2 -40 0 -13 2 -5 4 17 4 22 1 32 -1 23 -4z
m80 -10 c-10 -2 -28 -2 -40 0 -13 2 -5 4 17 4 22 1 32 -1 23 -4z m-2243 -13
c13 -5 14 -9 5 -9 -8 0 -24 4 -35 9 -13 5 -14 9 -5 9 8 0 24 -4 35 -9z m2158
3 c-13 -2 -35 -2 -50 0 -16 2 -5 4 22 4 28 0 40 -2 28 -4z m-1813 -18 c7 -8 8
-15 2 -15 -5 0 -15 7 -22 15 -7 8 -8 15 -2 15 5 0 15 -7 22 -15z m-287 -2 c-7
-2 -19 -2 -25 0 -7 3 -2 5 12 5 14 0 19 -2 13 -5z m84 -19 c-3 -3 -12 -4 -19
-1 -8 3 -5 6 6 6 11 1 17 -2 13 -5z m211 -19 c23 0 42 -3 42 -7 0 -3 6 -8 13
-11 6 -2 1 -2 -13 -1 -14 2 -56 6 -95 10 -38 3 -88 10 -110 14 -24 5 -9 6 40
2 44 -4 99 -7 123 -7z"/>
<path d="M3178 1363 c12 -2 30 -2 40 0 9 3 -1 5 -23 4 -22 0 -30 -2 -17 -4z"/>
<path d="M2554 2490 c-12 -5 -25 -14 -29 -20 -4 -7 7 -4 24 4 17 9 31 19 31
21 0 6 1 6 -26 -5z"/>
<path d="M3302 1516 c15 -30 16 -30 14 -3 0 13 -6 24 -13 24 -9 0 -9 -6 -1
-21z"/>
<path d="M3408 1483 c6 -2 18 -2 25 0 6 3 1 5 -13 5 -14 0 -19 -2 -12 -5z"/>
<path d="M3473 1443 c9 -2 23 -2 30 0 6 3 -1 5 -18 5 -16 0 -22 -2 -12 -5z"/>
<path d="M3403 1433 c9 -2 25 -2 35 0 9 3 1 5 -18 5 -19 0 -27 -2 -17 -5z"/>
<path d="M3333 1423 c9 -2 25 -2 35 0 9 3 1 5 -18 5 -19 0 -27 -2 -17 -5z"/>
<path d="M3228 1413 c12 -2 30 -2 40 0 9 3 -1 5 -23 4 -22 0 -30 -2 -17 -4z"/>
<path d="M3535 1311 c-25 -11 -221 -37 -380 -51 -133 -12 -349 -38 -380 -46
-11 -3 -29 -17 -39 -32 l-20 -27 21 18 c27 23 122 39 444 72 256 26 362 44
382 64 13 13 1 13 -28 2z"/>
<path d="M3048 1263 c7 -3 16 -2 19 1 4 3 -2 6 -13 5 -11 0 -14 -3 -6 -6z"/>
<path d="M2958 1253 c6 -2 18 -2 25 0 6 3 1 5 -13 5 -14 0 -19 -2 -12 -5z"/>
<path d="M2878 1243 c6 -2 18 -2 25 0 6 3 1 5 -13 5 -14 0 -19 -2 -12 -5z"/>
</g>
</svg>
